<mxfile host="65bd71144e">
    <diagram id="ofoE48H0PXTcuWrxJlAl" name="Page-1">
        <mxGraphModel dx="847" dy="497" grid="1" gridSize="10" guides="1" tooltips="1" connect="1" arrows="1" fold="1" page="1" pageScale="1" pageWidth="850" pageHeight="1100" math="0" shadow="0">
            <root>
                <mxCell id="0"/>
                <mxCell id="1" parent="0"/>
                <mxCell id="2" value="" style="rounded=0;whiteSpace=wrap;html=1;movable=1;resizable=1;rotatable=1;deletable=1;editable=1;connectable=1;fillColor=#6d8764;strokeColor=#3A5431;fontColor=#ffffff;" parent="1" vertex="1">
                    <mxGeometry x="150" y="375" width="550" height="350" as="geometry"/>
                </mxCell>
                <mxCell id="3" value="" style="endArrow=classic;startArrow=classic;html=1;" parent="1" edge="1">
                    <mxGeometry width="50" height="50" relative="1" as="geometry">
                        <mxPoint x="720" y="720" as="sourcePoint"/>
                        <mxPoint x="720" y="380" as="targetPoint"/>
                    </mxGeometry>
                </mxCell>
                <mxCell id="4" value="" style="endArrow=classic;startArrow=classic;html=1;" parent="1" edge="1">
                    <mxGeometry width="50" height="50" relative="1" as="geometry">
                        <mxPoint x="160" y="360" as="sourcePoint"/>
                        <mxPoint x="690" y="360" as="targetPoint"/>
                    </mxGeometry>
                </mxCell>
                <mxCell id="6" value="" style="line;strokeWidth=4;html=1;perimeter=backbonePerimeter;points=[];outlineConnect=0;rotation=90;" parent="1" vertex="1">
                    <mxGeometry x="640" y="575" width="60" height="10" as="geometry"/>
                </mxCell>
                <mxCell id="7" value="" style="line;strokeWidth=4;html=1;perimeter=backbonePerimeter;points=[];outlineConnect=0;rotation=90;" parent="1" vertex="1">
                    <mxGeometry x="150" y="500" width="60" height="10" as="geometry"/>
                </mxCell>
                <mxCell id="10" value="Paddle Size" style="endArrow=classic;startArrow=classic;html=1;jumpSize=4;verticalAlign=middle;horizontal=0;fontSize=7;" parent="1" edge="1">
                    <mxGeometry width="50" height="50" relative="1" as="geometry">
                        <mxPoint x="682" y="549" as="sourcePoint"/>
                        <mxPoint x="682" y="609" as="targetPoint"/>
                    </mxGeometry>
                </mxCell>
                <mxCell id="11" value="" style="ellipse;shape=doubleEllipse;whiteSpace=wrap;html=1;aspect=fixed;fillColor=default;gradientColor=none;" parent="1" vertex="1">
                    <mxGeometry x="270" y="495" width="15" height="15" as="geometry"/>
                </mxCell>
                <mxCell id="12" value="Direction (x)" style="endArrow=classic;startArrow=classic;html=1;fontSize=9;jumpSize=4;" parent="1" edge="1">
                    <mxGeometry width="50" height="50" relative="1" as="geometry">
                        <mxPoint x="242.5" y="524" as="sourcePoint"/>
                        <mxPoint x="310" y="524" as="targetPoint"/>
                        <mxPoint as="offset"/>
                    </mxGeometry>
                </mxCell>
                <mxCell id="13" value="Ball Speed" style="text;html=1;strokeColor=none;fillColor=none;align=center;verticalAlign=middle;whiteSpace=wrap;rounded=0;fontSize=9;" parent="1" vertex="1">
                    <mxGeometry x="208" y="489.5" width="60" height="30" as="geometry"/>
                </mxCell>
                <mxCell id="14" value="Field Length" style="text;html=1;strokeColor=none;fillColor=none;align=center;verticalAlign=middle;whiteSpace=wrap;rounded=0;fontSize=11;" parent="1" vertex="1">
                    <mxGeometry x="378" y="330" width="95" height="30" as="geometry"/>
                </mxCell>
                <mxCell id="15" value="Field Widthh" style="text;html=1;strokeColor=none;fillColor=none;align=center;verticalAlign=middle;whiteSpace=wrap;rounded=0;fontSize=11;rotation=90;" parent="1" vertex="1">
                    <mxGeometry x="690" y="535" width="95" height="30" as="geometry"/>
                </mxCell>
                <mxCell id="16" value="Ball Pos (x,y)" style="text;html=1;strokeColor=none;fillColor=none;align=center;verticalAlign=middle;whiteSpace=wrap;rounded=0;fontSize=9;" parent="1" vertex="1">
                    <mxGeometry x="217" y="470" width="60" height="30" as="geometry"/>
                </mxCell>
                <mxCell id="17" value="" style="endArrow=classic;html=1;fontSize=11;jumpSize=4;entryX=0.461;entryY=0.005;entryDx=0;entryDy=0;entryPerimeter=0;" parent="1" target="2" edge="1">
                    <mxGeometry width="50" height="50" relative="1" as="geometry">
                        <mxPoint x="285" y="495" as="sourcePoint"/>
                        <mxPoint x="335" y="445" as="targetPoint"/>
                    </mxGeometry>
                </mxCell>
                <mxCell id="20" value="" style="endArrow=none;html=1;fontSize=11;jumpSize=4;entryX=0.231;entryY=0;entryDx=0;entryDy=0;entryPerimeter=0;" parent="1" target="2" edge="1">
                    <mxGeometry width="50" height="50" relative="1" as="geometry">
                        <mxPoint x="277" y="495" as="sourcePoint"/>
                        <mxPoint x="277" y="370" as="targetPoint"/>
                    </mxGeometry>
                </mxCell>
                <mxCell id="21" value="" style="endArrow=none;dashed=1;html=1;dashPattern=1 3;strokeWidth=2;fontSize=11;jumpSize=4;" parent="1" edge="1">
                    <mxGeometry width="50" height="50" relative="1" as="geometry">
                        <mxPoint x="280" y="450" as="sourcePoint"/>
                        <mxPoint x="310" y="470" as="targetPoint"/>
                        <Array as="points">
                            <mxPoint x="300" y="440"/>
                            <mxPoint x="310" y="450"/>
                        </Array>
                    </mxGeometry>
                </mxCell>
                <mxCell id="22" value="Angle" style="text;html=1;strokeColor=none;fillColor=none;align=center;verticalAlign=middle;whiteSpace=wrap;rounded=0;fontSize=8;" parent="1" vertex="1">
                    <mxGeometry x="265" y="440" width="60" height="30" as="geometry"/>
                </mxCell>
                <mxCell id="23" value="Paddle Move Speed" style="text;html=1;strokeColor=none;fillColor=none;align=center;verticalAlign=middle;whiteSpace=wrap;rounded=0;fontSize=8;" parent="1" vertex="1">
                    <mxGeometry x="640" y="620" width="60" height="30" as="geometry"/>
                </mxCell>
                <mxCell id="24" value="Paddle Pos (x,y)" style="text;html=1;strokeColor=none;fillColor=none;align=center;verticalAlign=middle;whiteSpace=wrap;rounded=0;fontSize=9;" parent="1" vertex="1">
                    <mxGeometry x="607" y="591" width="60" height="30" as="geometry"/>
                </mxCell>
                <mxCell id="25" value="Side (x)" style="text;html=1;strokeColor=none;fillColor=none;align=center;verticalAlign=middle;whiteSpace=wrap;rounded=0;fontSize=13;" parent="1" vertex="1">
                    <mxGeometry x="395" y="730" width="60" height="30" as="geometry"/>
                </mxCell>
                <mxCell id="26" value="" style="endArrow=none;dashed=1;html=1;dashPattern=1 3;strokeWidth=2;fontSize=13;jumpSize=4;" parent="1" edge="1">
                    <mxGeometry width="50" height="50" relative="1" as="geometry">
                        <mxPoint x="30" y="560" as="sourcePoint"/>
                        <mxPoint x="808.3333129882812" y="560" as="targetPoint"/>
                    </mxGeometry>
                </mxCell>
                <mxCell id="27" value="" style="endArrow=none;dashed=1;html=1;fontSize=13;jumpSize=4;fontColor=#783636;" parent="1" edge="1">
                    <mxGeometry width="50" height="50" relative="1" as="geometry">
                        <mxPoint x="420" y="905" as="sourcePoint"/>
                        <mxPoint x="420" y="195" as="targetPoint"/>
                    </mxGeometry>
                </mxCell>
                <mxCell id="28" value="x Axis" style="text;html=1;strokeColor=none;fillColor=none;align=center;verticalAlign=middle;whiteSpace=wrap;rounded=0;fontSize=13;" parent="1" vertex="1">
                    <mxGeometry x="20" y="555" width="60" height="30" as="geometry"/>
                </mxCell>
                <mxCell id="29" value="y Axis" style="text;html=1;strokeColor=none;fillColor=none;align=center;verticalAlign=middle;whiteSpace=wrap;rounded=0;fontSize=13;" parent="1" vertex="1">
                    <mxGeometry x="413" y="190" width="60" height="30" as="geometry"/>
                </mxCell>
                <mxCell id="30" value="Current Score" style="text;html=1;strokeColor=none;fillColor=none;align=center;verticalAlign=middle;whiteSpace=wrap;rounded=0;fontSize=13;fontColor=#FFFAFA;" parent="1" vertex="1">
                    <mxGeometry x="580" y="390" width="100" height="30" as="geometry"/>
                </mxCell>
                <mxCell id="31" value="&lt;font style=&quot;font-size: 9px;&quot;&gt;Vertical distance&lt;/font&gt;" style="text;html=1;align=center;verticalAlign=middle;whiteSpace=wrap;rounded=0;rotation=-90;fontColor=#fa0000;" vertex="1" parent="1">
                    <mxGeometry x="220" y="420" width="90" height="30" as="geometry"/>
                </mxCell>
                <mxCell id="32" value="tan(angle)" style="text;html=1;strokeColor=none;fillColor=none;align=center;verticalAlign=middle;whiteSpace=wrap;rounded=0;fontSize=9;fontColor=#fa0000;" vertex="1" parent="1">
                    <mxGeometry x="277" y="420" width="60" height="30" as="geometry"/>
                </mxCell>
                <mxCell id="33" value="?" style="text;html=1;strokeColor=none;fillColor=none;align=center;verticalAlign=middle;whiteSpace=wrap;rounded=0;fontSize=13;fontColor=#fa0000;" vertex="1" parent="1">
                    <mxGeometry x="300" y="370" width="60" height="30" as="geometry"/>
                </mxCell>
                <mxCell id="34" value="&lt;span class=&quot;base&quot;&gt;&lt;font color=&quot;#f00000&quot;&gt;&lt;span style=&quot;&quot; class=&quot;mop&quot;&gt;tan&lt;/span&gt;&lt;span style=&quot;&quot; class=&quot;mopen&quot;&gt;(&lt;/span&gt;&lt;span style=&quot;&quot; class=&quot;mord mathnormal&quot;&gt;θ&lt;/span&gt;&lt;span style=&quot;&quot; class=&quot;mclose&quot;&gt;)&lt;/span&gt;&lt;span class=&quot;mspace&quot;&gt;&lt;/span&gt;&lt;span style=&quot;&quot; class=&quot;mrel&quot;&gt;=&lt;/span&gt;&lt;span class=&quot;mspace&quot;&gt;&lt;/span&gt;&lt;/font&gt;&lt;/span&gt;&lt;span class=&quot;base&quot;&gt;&lt;font color=&quot;#f00000&quot;&gt;&lt;span class=&quot;strut&quot;&gt;&lt;/span&gt;&lt;/font&gt;&lt;span class=&quot;mord&quot;&gt;&lt;font color=&quot;#f00000&quot;&gt;&lt;span class=&quot;mopen nulldelimiter&quot;&gt;&lt;/span&gt;&lt;/font&gt;&lt;span class=&quot;mfrac&quot;&gt;&lt;span class=&quot;vlist-t vlist-t2&quot;&gt;&lt;span class=&quot;vlist-r&quot;&gt;&lt;font color=&quot;#f00000&quot;&gt;&lt;span style=&quot;&quot; class=&quot;vlist&quot;&gt;&lt;span&gt;&lt;span class=&quot;pstrut&quot;&gt;&lt;/span&gt;&lt;span class=&quot;mord&quot;&gt;&lt;span class=&quot;mord text&quot;&gt;&lt;span class=&quot;mord&quot;&gt;c&lt;/span&gt;&lt;span class=&quot;mord accent&quot;&gt;&lt;span class=&quot;vlist-t&quot;&gt;&lt;span class=&quot;vlist-r&quot;&gt;&lt;span class=&quot;vlist&quot;&gt;&lt;span&gt;&lt;span class=&quot;pstrut&quot;&gt;&lt;/span&gt;&lt;span class=&quot;mord&quot;&gt;o&lt;/span&gt;&lt;/span&gt;&lt;/span&gt;&lt;/span&gt;&lt;/span&gt;&lt;/span&gt;&lt;span class=&quot;mord&quot;&gt;t&lt;/span&gt;&lt;span class=&quot;mord accent&quot;&gt;&lt;span class=&quot;vlist-t&quot;&gt;&lt;span class=&quot;vlist-r&quot;&gt;&lt;span class=&quot;vlist&quot;&gt;&lt;span&gt;&lt;span class=&quot;pstrut&quot;&gt;&lt;/span&gt;&lt;span class=&quot;mord&quot;&gt;e&lt;/span&gt;&lt;/span&gt;&lt;/span&gt;&lt;/span&gt;&lt;/span&gt;&lt;/span&gt;&lt;span class=&quot;mord&quot;&gt;&amp;nbsp;adjacent/&lt;/span&gt;&lt;/span&gt;&lt;/span&gt;&lt;/span&gt;&lt;span&gt;&lt;span class=&quot;pstrut&quot;&gt;&lt;/span&gt;&lt;span class=&quot;frac-line&quot;&gt;&lt;/span&gt;&lt;/span&gt;&lt;span&gt;&lt;span class=&quot;pstrut&quot;&gt;&lt;/span&gt;&lt;span class=&quot;mord&quot;&gt;&lt;span class=&quot;mord text&quot;&gt;&lt;span class=&quot;mord&quot;&gt;c&lt;/span&gt;&lt;span class=&quot;mord accent&quot;&gt;&lt;span class=&quot;vlist-t&quot;&gt;&lt;span class=&quot;vlist-r&quot;&gt;&lt;span class=&quot;vlist&quot;&gt;&lt;span&gt;&lt;span class=&quot;pstrut&quot;&gt;&lt;/span&gt;&lt;span class=&quot;mord&quot;&gt;o&lt;/span&gt;&lt;/span&gt;&lt;/span&gt;&lt;/span&gt;&lt;/span&gt;&lt;/span&gt;&lt;span class=&quot;mord&quot;&gt;t&lt;/span&gt;&lt;span class=&quot;mord accent&quot;&gt;&lt;span class=&quot;vlist-t&quot;&gt;&lt;span class=&quot;vlist-r&quot;&gt;&lt;span class=&quot;vlist&quot;&gt;&lt;span&gt;&lt;span class=&quot;pstrut&quot;&gt;&lt;/span&gt;&lt;span class=&quot;mord&quot;&gt;e&lt;/span&gt;&lt;/span&gt;&lt;/span&gt;&lt;/span&gt;&lt;/span&gt;&lt;/span&gt;&lt;span class=&quot;mord&quot;&gt;&amp;nbsp;oppos&lt;/span&gt;&lt;span class=&quot;mord accent&quot;&gt;&lt;span class=&quot;vlist-t&quot;&gt;&lt;span class=&quot;vlist-r&quot;&gt;&lt;span class=&quot;vlist&quot;&gt;&lt;span&gt;&lt;span class=&quot;pstrut&quot;&gt;&lt;/span&gt;&lt;span class=&quot;mord&quot;&gt;e&lt;/span&gt;&lt;/span&gt;&lt;/span&gt;&lt;/span&gt;&lt;/span&gt;&lt;/span&gt;&lt;/span&gt;&lt;/span&gt;&lt;/span&gt;&lt;/span&gt;&lt;span style=&quot;&quot; class=&quot;vlist-s&quot;&gt;​&lt;/span&gt;&lt;/font&gt;&lt;/span&gt;&lt;span class=&quot;vlist-r&quot;&gt;&lt;span class=&quot;vlist&quot;&gt;&lt;/span&gt;&lt;/span&gt;&lt;/span&gt;&lt;/span&gt;&lt;/span&gt;&lt;/span&gt;" style="text;whiteSpace=wrap;html=1;" vertex="1" parent="1">
                    <mxGeometry x="270" y="310" width="190" height="30" as="geometry"/>
                </mxCell>
            </root>
        </mxGraphModel>
    </diagram>
</mxfile>